<svg id="svg" version="1.1" xmlns="http://www.w3.org/2000/svg" xmlns:xlink="http://www.w3.org/1999/xlink" width="690" height="690" viewBox="0, 0, 400,400"><g id="svgg"><path id="path0" d="M3.067 3.067 C 2.920 3.213,2.800 14.193,2.800 27.467 L 2.800 51.600 27.200 51.600 L 51.600 51.600 51.600 27.200 L 51.600 2.800 27.467 2.800 C 14.193 2.800,3.213 2.920,3.067 3.067 M101.600 27.200 L 101.600 51.600 125.800 51.600 L 150.000 51.600 150.000 27.200 L 150.000 2.800 125.800 2.800 L 101.600 2.800 101.600 27.200 M200.000 27.200 L 200.000 51.600 224.600 51.600 L 249.200 51.600 249.200 27.200 L 249.200 2.800 224.600 2.800 L 200.000 2.800 200.000 27.200 M299.200 27.200 L 299.200 51.606 323.500 51.503 L 347.800 51.400 347.800 27.200 L 347.800 3.000 323.500 2.897 L 299.200 2.794 299.200 27.200 M52.400 76.600 L 52.400 100.800 76.600 100.800 L 100.800 100.800 100.800 76.600 L 100.800 52.400 76.600 52.400 L 52.400 52.400 52.400 76.600 M150.800 76.600 L 150.800 100.800 175.400 100.800 L 200.000 100.800 200.000 76.600 L 200.000 52.400 175.400 52.400 L 150.800 52.400 150.800 76.600 M250.000 76.600 L 250.000 100.800 274.200 100.800 L 298.400 100.800 298.400 76.600 L 298.400 52.400 274.200 52.400 L 250.000 52.400 250.000 76.600 M348.400 76.600 L 348.400 100.800 372.800 100.800 L 397.200 100.800 397.200 76.600 L 397.200 52.400 372.800 52.400 L 348.400 52.400 348.400 76.600 M2.800 125.800 L 2.800 150.000 27.200 150.000 L 51.600 150.000 51.600 125.800 L 51.600 101.600 27.200 101.600 L 2.800 101.600 2.800 125.800 M101.600 125.800 L 101.600 150.000 125.800 150.000 L 150.000 150.000 150.000 125.800 L 150.000 101.600 125.800 101.600 L 101.600 101.600 101.600 125.800 M200.000 125.800 L 200.000 150.000 224.600 150.000 L 249.200 150.000 249.200 125.800 L 249.200 101.600 224.600 101.600 L 200.000 101.600 200.000 125.800 M299.200 125.800 L 299.200 150.000 323.600 150.000 L 348.000 150.000 348.000 125.800 L 348.000 101.600 323.600 101.600 L 299.200 101.600 299.200 125.800 M52.400 175.400 L 52.400 200.000 76.600 200.000 L 100.800 200.000 100.800 175.400 L 100.800 150.800 76.600 150.800 L 52.400 150.800 52.400 175.400 M150.800 175.400 L 150.800 200.000 175.400 200.000 L 200.000 200.000 200.000 224.600 L 200.000 249.200 224.600 249.200 L 249.200 249.200 249.200 224.600 L 249.200 200.000 224.600 200.000 L 200.000 200.000 200.000 175.400 L 200.000 150.800 175.400 150.800 L 150.800 150.800 150.800 175.400 M250.000 175.400 L 250.000 200.000 274.200 200.000 L 298.400 200.000 298.400 175.400 L 298.400 150.800 274.200 150.800 L 250.000 150.800 250.000 175.400 M348.400 175.400 L 348.400 200.000 372.800 200.000 L 397.200 200.000 397.200 175.400 L 397.200 150.800 372.800 150.800 L 348.400 150.800 348.400 175.400 M2.800 224.600 L 2.800 249.200 27.200 249.200 L 51.600 249.200 51.600 224.600 L 51.600 200.000 27.200 200.000 L 2.800 200.000 2.800 224.600 M101.600 224.600 L 101.600 249.200 125.800 249.200 L 150.000 249.200 150.000 224.600 L 150.000 200.000 125.800 200.000 L 101.600 200.000 101.600 224.600 M299.200 224.597 L 299.200 249.200 323.603 249.200 L 348.006 249.200 347.903 224.700 L 347.800 200.200 323.500 200.097 L 299.200 199.994 299.200 224.597 M52.400 274.200 L 52.400 298.400 76.600 298.400 L 100.800 298.400 100.800 274.200 L 100.800 250.000 76.600 250.000 L 52.400 250.000 52.400 274.200 M150.800 274.200 L 150.800 298.400 175.400 298.400 L 200.000 298.400 200.000 274.200 L 200.000 250.000 175.400 250.000 L 150.800 250.000 150.800 274.200 M250.000 274.200 L 250.000 298.400 274.200 298.400 L 298.400 298.400 298.400 274.200 L 298.400 250.000 274.200 250.000 L 250.000 250.000 250.000 274.200 M348.400 274.200 L 348.400 298.400 372.800 298.400 L 397.200 298.400 397.200 274.200 L 397.200 250.000 372.800 250.000 L 348.400 250.000 348.400 274.200 M2.897 323.500 L 3.000 347.800 27.200 347.800 L 51.400 347.800 51.503 323.500 L 51.606 299.200 27.200 299.200 L 2.794 299.200 2.897 323.500 M101.600 323.600 L 101.600 348.000 125.800 348.000 L 150.000 348.000 150.000 323.600 L 150.000 299.200 125.800 299.200 L 101.600 299.200 101.600 323.600 M200.097 323.500 L 200.200 347.800 224.700 347.903 L 249.200 348.006 249.200 323.603 L 249.200 299.200 224.597 299.200 L 199.994 299.200 200.097 323.500 M299.200 323.603 L 299.200 348.006 323.500 347.903 L 347.800 347.800 347.903 323.500 L 348.006 299.200 323.603 299.200 L 299.200 299.200 299.200 323.603 M52.400 372.800 L 52.400 397.200 76.600 397.200 L 100.800 397.200 100.800 372.800 L 100.800 348.400 76.600 348.400 L 52.400 348.400 52.400 372.800 M150.800 372.800 L 150.800 397.200 175.400 397.200 L 200.000 397.200 200.000 372.800 L 200.000 348.400 175.400 348.400 L 150.800 348.400 150.800 372.800 M250.000 372.800 L 250.000 397.200 274.200 397.200 L 298.400 397.200 298.400 372.800 L 298.400 348.400 274.200 348.400 L 250.000 348.400 250.000 372.800 M348.400 372.800 L 348.400 397.200 372.800 397.200 L 397.200 397.200 397.200 372.800 L 397.200 348.400 372.800 348.400 L 348.400 348.400 348.400 372.800 " stroke="none" fill="#fcfcfc" fill-rule="evenodd"></path><path id="path1" d="M0.000 200.000 L 0.000 400.000 200.000 400.000 L 400.000 400.000 400.000 200.000 L 400.000 0.000 200.000 0.000 L 0.000 0.000 0.000 200.000 M51.600 27.200 L 51.600 51.600 27.200 51.600 L 2.800 51.600 2.800 27.467 C 2.800 14.193,2.920 3.213,3.067 3.067 C 3.213 2.920,14.193 2.800,27.467 2.800 L 51.600 2.800 51.600 27.200 M150.000 27.200 L 150.000 51.600 125.800 51.600 L 101.600 51.600 101.600 27.200 L 101.600 2.800 125.800 2.800 L 150.000 2.800 150.000 27.200 M249.200 27.200 L 249.200 51.600 224.600 51.600 L 200.000 51.600 200.000 27.200 L 200.000 2.800 224.600 2.800 L 249.200 2.800 249.200 27.200 M347.800 27.200 L 347.800 51.400 323.500 51.503 L 299.200 51.606 299.200 27.200 L 299.200 2.794 323.500 2.897 L 347.800 3.000 347.800 27.200 M100.800 76.600 L 100.800 100.800 76.600 100.800 L 52.400 100.800 52.400 76.600 L 52.400 52.400 76.600 52.400 L 100.800 52.400 100.800 76.600 M200.000 76.600 L 200.000 100.800 175.400 100.800 L 150.800 100.800 150.800 76.600 L 150.800 52.400 175.400 52.400 L 200.000 52.400 200.000 76.600 M298.400 76.600 L 298.400 100.800 274.200 100.800 L 250.000 100.800 250.000 76.600 L 250.000 52.400 274.200 52.400 L 298.400 52.400 298.400 76.600 M397.200 76.600 L 397.200 100.800 372.800 100.800 L 348.400 100.800 348.400 76.600 L 348.400 52.400 372.800 52.400 L 397.200 52.400 397.200 76.600 M51.600 125.800 L 51.600 150.000 27.200 150.000 L 2.800 150.000 2.800 125.800 L 2.800 101.600 27.200 101.600 L 51.600 101.600 51.600 125.800 M150.000 125.800 L 150.000 150.000 125.800 150.000 L 101.600 150.000 101.600 125.800 L 101.600 101.600 125.800 101.600 L 150.000 101.600 150.000 125.800 M249.200 125.800 L 249.200 150.000 224.600 150.000 L 200.000 150.000 200.000 125.800 L 200.000 101.600 224.600 101.600 L 249.200 101.600 249.200 125.800 M348.000 125.800 L 348.000 150.000 323.600 150.000 L 299.200 150.000 299.200 125.800 L 299.200 101.600 323.600 101.600 L 348.000 101.600 348.000 125.800 M100.800 175.400 L 100.800 200.000 76.600 200.000 L 52.400 200.000 52.400 175.400 L 52.400 150.800 76.600 150.800 L 100.800 150.800 100.800 175.400 M200.000 175.400 L 200.000 200.000 224.600 200.000 L 249.200 200.000 249.200 224.600 L 249.200 249.200 224.600 249.200 L 200.000 249.200 200.000 224.600 L 200.000 200.000 175.400 200.000 L 150.800 200.000 150.800 175.400 L 150.800 150.800 175.400 150.800 L 200.000 150.800 200.000 175.400 M298.400 175.400 L 298.400 200.000 274.200 200.000 L 250.000 200.000 250.000 175.400 L 250.000 150.800 274.200 150.800 L 298.400 150.800 298.400 175.400 M397.200 175.400 L 397.200 200.000 372.800 200.000 L 348.400 200.000 348.400 175.400 L 348.400 150.800 372.800 150.800 L 397.200 150.800 397.200 175.400 M51.600 224.600 L 51.600 249.200 27.200 249.200 L 2.800 249.200 2.800 224.600 L 2.800 200.000 27.200 200.000 L 51.600 200.000 51.600 224.600 M150.000 224.600 L 150.000 249.200 125.800 249.200 L 101.600 249.200 101.600 224.600 L 101.600 200.000 125.800 200.000 L 150.000 200.000 150.000 224.600 M347.903 224.700 L 348.006 249.200 323.603 249.200 L 299.200 249.200 299.200 224.597 L 299.200 199.994 323.500 200.097 L 347.800 200.200 347.903 224.700 M100.800 274.200 L 100.800 298.400 76.600 298.400 L 52.400 298.400 52.400 274.200 L 52.400 250.000 76.600 250.000 L 100.800 250.000 100.800 274.200 M200.000 274.200 L 200.000 298.400 175.400 298.400 L 150.800 298.400 150.800 274.200 L 150.800 250.000 175.400 250.000 L 200.000 250.000 200.000 274.200 M298.400 274.200 L 298.400 298.400 274.200 298.400 L 250.000 298.400 250.000 274.200 L 250.000 250.000 274.200 250.000 L 298.400 250.000 298.400 274.200 M397.200 274.200 L 397.200 298.400 372.800 298.400 L 348.400 298.400 348.400 274.200 L 348.400 250.000 372.800 250.000 L 397.200 250.000 397.200 274.200 M51.503 323.500 L 51.400 347.800 27.200 347.800 L 3.000 347.800 2.897 323.500 L 2.794 299.200 27.200 299.200 L 51.606 299.200 51.503 323.500 M150.000 323.600 L 150.000 348.000 125.800 348.000 L 101.600 348.000 101.600 323.600 L 101.600 299.200 125.800 299.200 L 150.000 299.200 150.000 323.600 M249.200 323.603 L 249.200 348.006 224.700 347.903 L 200.200 347.800 200.097 323.500 L 199.994 299.200 224.597 299.200 L 249.200 299.200 249.200 323.603 M347.903 323.500 L 347.800 347.800 323.500 347.903 L 299.200 348.006 299.200 323.603 L 299.200 299.200 323.603 299.200 L 348.006 299.200 347.903 323.500 M100.800 372.800 L 100.800 397.200 76.600 397.200 L 52.400 397.200 52.400 372.800 L 52.400 348.400 76.600 348.400 L 100.800 348.400 100.800 372.800 M200.000 372.800 L 200.000 397.200 175.400 397.200 L 150.800 397.200 150.800 372.800 L 150.800 348.400 175.400 348.400 L 200.000 348.400 200.000 372.800 M298.400 372.800 L 298.400 397.200 274.200 397.200 L 250.000 397.200 250.000 372.800 L 250.000 348.400 274.200 348.400 L 298.400 348.400 298.400 372.800 M397.200 372.800 L 397.200 397.200 372.800 397.200 L 348.400 397.200 348.400 372.800 L 348.400 348.400 372.800 348.400 L 397.200 348.400 397.200 372.800 " stroke="none" fill="#fc9ccc" fill-rule="evenodd"></path></g></svg>