<svg id="svg" version="1.1" xmlns="http://www.w3.org/2000/svg" xmlns:xlink="http://www.w3.org/1999/xlink" width="40" height="40" viewBox="0, 0, 400,400"><g id="svgg"><path id="path0" d="M229.411 0.382 C 189.170 3.338,159.798 24.636,145.317 61.359 C 136.675 83.277,135.289 108.945,141.571 130.749 C 144.882 142.241,148.723 149.134,160.611 164.919 C 171.730 179.685,174.447 185.880,174.883 197.461 C 175.177 205.296,173.609 209.400,168.581 213.953 C 155.273 226.006,119.015 228.840,94.727 219.726 C 72.606 211.426,52.009 191.853,39.750 167.482 C 37.084 162.183,37.646 162.279,33.008 166.335 C -7.399 201.673,-11.048 281.459,25.267 335.614 C 50.064 372.593,89.895 394.076,142.969 399.097 C 152.583 400.007,227.888 400.161,232.813 399.281 C 255.779 395.178,281.182 381.009,301.886 360.755 C 330.272 332.986,341.271 303.721,336.144 269.601 C 333.193 249.965,327.908 239.663,311.977 222.492 C 301.895 211.626,299.998 207.836,300.002 198.576 C 300.009 186.074,304.036 173.288,310.781 164.358 L 312.181 162.505 310.928 161.819 C 296.528 153.935,288.002 145.166,287.575 137.800 C 286.991 127.704,289.937 123.933,304.240 116.465 C 318.928 108.796,325.892 103.041,334.530 91.435 L 337.428 87.541 336.643 83.907 C 324.806 29.112,282.879 -3.546,229.411 0.382 M305.155 63.577 C 312.989 67.051,314.907 77.692,308.799 83.799 C 301.280 91.318,288.448 86.581,287.597 75.972 C 286.842 66.578,296.518 59.748,305.155 63.577 " stroke="none" fill="#fc5652" fill-rule="evenodd"></path><path id="path1" d="M296.211 63.203 C 282.761 68.009,285.794 87.273,300.000 87.273 C 313.262 87.273,317.215 69.284,305.166 63.768 C 302.313 62.462,298.891 62.246,296.211 63.203 " stroke="none" fill="#656464" fill-rule="evenodd"></path><path id="path2" d="M228.809 0.286 C 229.722 0.368,231.216 0.368,232.129 0.286 C 233.042 0.204,232.295 0.136,230.469 0.136 C 228.643 0.136,227.896 0.204,228.809 0.286 M242.881 0.287 C 243.800 0.369,245.206 0.368,246.006 0.284 C 246.806 0.200,246.055 0.132,244.336 0.134 C 242.617 0.135,241.963 0.204,242.881 0.287 M224.322 0.671 C 224.916 0.761,225.794 0.758,226.275 0.666 C 226.755 0.573,226.270 0.499,225.195 0.502 C 224.121 0.505,223.728 0.581,224.322 0.671 M248.730 0.666 C 249.214 0.759,250.005 0.759,250.488 0.666 C 250.972 0.573,250.576 0.497,249.609 0.497 C 248.643 0.497,248.247 0.573,248.730 0.666 M221.001 1.058 C 221.487 1.151,222.190 1.147,222.563 1.050 C 222.937 0.952,222.539 0.875,221.680 0.880 C 220.820 0.884,220.515 0.964,221.001 1.058 M252.441 1.051 C 252.817 1.149,253.433 1.149,253.809 1.051 C 254.185 0.952,253.877 0.872,253.125 0.872 C 252.373 0.872,252.065 0.952,252.441 1.051 M216.602 1.563 C 214.977 1.976,216.576 1.994,218.555 1.585 C 219.868 1.313,219.931 1.262,218.945 1.263 C 218.301 1.264,217.246 1.398,216.602 1.563 M255.176 1.441 C 255.552 1.539,256.167 1.539,256.543 1.441 C 256.919 1.343,256.611 1.263,255.859 1.263 C 255.107 1.263,254.800 1.343,255.176 1.441 M260.352 2.355 C 262.070 2.754,263.740 3.070,264.063 3.058 C 265.002 3.022,259.281 1.626,258.203 1.628 C 257.666 1.630,258.633 1.957,260.352 2.355 M210.938 2.734 C 210.164 2.982,210.124 3.047,210.742 3.047 C 211.172 3.047,211.963 2.906,212.500 2.734 C 213.273 2.487,213.314 2.422,212.695 2.422 C 212.266 2.422,211.475 2.562,210.938 2.734 M265.430 3.463 C 265.859 3.651,266.826 3.916,267.578 4.053 C 268.517 4.223,268.700 4.194,268.164 3.959 C 267.734 3.771,266.768 3.505,266.016 3.369 C 265.077 3.199,264.893 3.228,265.430 3.463 M201.953 5.292 C 174.570 14.464,153.874 35.702,143.400 65.376 C 142.733 67.266,142.197 69.018,142.208 69.269 C 142.219 69.521,142.893 67.881,143.706 65.625 C 154.643 35.272,174.744 14.727,202.539 5.491 C 205.762 4.420,208.135 3.540,207.813 3.535 C 207.490 3.530,204.854 4.321,201.953 5.292 M274.023 6.201 C 305.305 17.766,327.876 45.583,336.505 83.203 C 337.022 85.459,337.458 86.949,337.473 86.514 C 337.563 83.908,333.565 70.466,330.423 62.810 C 320.427 38.448,303.976 19.893,283.446 9.821 C 278.934 7.608,270.477 4.282,269.435 4.310 C 269.166 4.318,271.230 5.169,274.023 6.201 M141.072 72.932 C 140.620 74.606,140.158 76.592,140.043 77.344 C 139.928 78.096,140.364 76.792,141.012 74.447 C 141.659 72.103,142.122 70.117,142.041 70.035 C 141.959 69.954,141.523 71.257,141.072 72.932 M139.063 81.641 C 138.804 83.173,138.672 84.505,138.769 84.603 C 138.866 84.700,139.153 83.522,139.407 81.985 C 139.661 80.449,139.793 79.116,139.700 79.023 C 139.608 78.931,139.321 80.109,139.063 81.641 M138.372 86.328 C 138.372 87.080,138.452 87.388,138.551 87.012 C 138.649 86.636,138.649 86.021,138.551 85.645 C 138.452 85.269,138.372 85.576,138.372 86.328 M334.766 91.076 C 326.620 102.414,318.977 108.771,304.240 116.465 C 289.937 123.933,286.991 127.704,287.575 137.800 C 288.002 145.166,296.528 153.935,310.928 161.819 L 312.181 162.505 310.785 164.358 C 307.486 168.737,304.487 174.693,302.752 180.307 C 301.455 184.507,301.877 184.133,303.315 179.807 C 304.831 175.248,307.522 169.684,309.765 166.467 C 312.462 162.599,312.378 162.656,315.831 162.386 C 334.381 160.940,376.776 139.014,394.164 121.875 C 398.643 117.460,399.997 115.095,399.979 111.719 C 399.936 103.647,394.143 100.062,381.055 100.008 C 362.167 99.930,344.274 94.919,338.722 88.153 C 337.837 87.076,337.416 87.387,334.766 91.076 M137.997 89.453 C 137.997 90.420,138.073 90.815,138.166 90.332 C 138.259 89.849,138.259 89.058,138.166 88.574 C 138.073 88.091,137.997 88.486,137.997 89.453 M137.628 94.336 C 137.630 95.840,137.701 96.407,137.785 95.597 C 137.870 94.786,137.868 93.556,137.782 92.862 C 137.696 92.169,137.626 92.832,137.628 94.336 M137.643 106.836 C 137.644 108.984,137.709 109.813,137.788 108.678 C 137.868 107.543,137.867 105.785,137.787 104.772 C 137.706 103.759,137.642 104.688,137.643 106.836 M138.002 113.086 C 138.005 114.160,138.081 114.553,138.171 113.959 C 138.261 113.366,138.258 112.487,138.166 112.006 C 138.073 111.526,137.999 112.012,138.002 113.086 M138.353 116.211 C 138.338 116.855,138.472 118.086,138.649 118.945 C 139.075 121.002,139.111 119.154,138.692 116.797 C 138.457 115.479,138.372 115.332,138.353 116.211 M139.155 121.484 C 139.155 122.021,139.289 122.988,139.453 123.633 C 139.719 124.678,139.751 124.699,139.751 123.828 C 139.751 123.291,139.617 122.324,139.453 121.680 C 139.187 120.634,139.155 120.613,139.155 121.484 M139.872 125.364 C 139.834 126.123,141.462 132.106,141.655 131.913 C 141.739 131.828,141.379 130.194,140.855 128.282 C 140.330 126.369,139.888 125.056,139.872 125.364 M141.844 132.813 C 141.838 133.135,142.074 133.926,142.369 134.570 C 143.059 136.079,143.070 135.377,142.383 133.594 C 142.093 132.842,141.851 132.490,141.844 132.813 M143.170 136.719 C 145.226 143.456,150.212 151.803,159.387 163.867 C 169.301 176.903,171.949 181.805,173.842 190.625 C 174.234 192.451,174.567 193.495,174.582 192.945 C 174.749 186.868,170.068 177.477,160.611 164.919 C 151.096 152.285,148.053 147.462,144.910 140.039 C 143.245 136.108,142.618 134.911,143.170 136.719 M33.789 165.169 C 24.608 173.009,15.982 184.951,10.322 197.656 C 8.374 202.031,5.456 209.882,5.488 210.662 C 5.499 210.921,6.268 209.023,7.196 206.445 C 13.064 190.150,22.445 175.573,33.008 166.335 C 37.646 162.279,37.084 162.183,39.750 167.482 C 50.552 188.956,68.081 207.031,87.203 216.413 C 92.016 218.774,101.403 222.290,102.786 222.250 C 103.080 222.241,101.015 221.468,98.198 220.532 C 74.666 212.709,53.375 193.367,40.582 168.190 C 37.210 161.555,37.744 161.792,33.789 165.169 M301.172 186.523 C 300.905 187.939,300.765 189.177,300.862 189.273 C 300.959 189.370,301.252 188.286,301.514 186.865 C 301.776 185.444,301.915 184.207,301.824 184.115 C 301.732 184.024,301.439 185.108,301.172 186.523 M300.489 191.211 C 300.493 192.070,300.573 192.376,300.667 191.890 C 300.760 191.404,300.757 190.701,300.659 190.327 C 300.561 189.954,300.485 190.352,300.489 191.211 M300.092 198.242 C 300.084 201.250,300.197 204.136,300.342 204.655 C 300.595 205.559,300.492 195.171,300.232 193.555 C 300.163 193.125,300.100 195.234,300.092 198.242 M174.605 199.219 C 174.190 210.128,168.499 216.400,154.913 220.918 C 152.748 221.638,151.214 222.236,151.505 222.246 C 152.447 222.281,158.896 219.978,161.415 218.708 C 171.221 213.763,175.140 207.900,174.915 198.511 L 174.805 193.945 174.605 199.219 M300.809 206.261 C 300.696 208.712,305.013 214.987,311.977 222.492 C 324.089 235.547,328.177 241.755,332.280 253.320 C 333.194 255.898,333.952 257.805,333.964 257.557 C 334.007 256.608,331.100 248.849,329.302 245.117 C 325.817 237.885,321.407 231.956,312.303 222.266 C 305.697 215.234,302.963 211.437,301.348 207.053 C 301.066 206.289,300.824 205.933,300.809 206.261 M4.353 214.338 C 3.902 216.013,3.439 217.998,3.324 218.750 C 3.210 219.502,3.646 218.199,4.293 215.854 C 4.941 213.509,5.404 211.523,5.322 211.442 C 5.240 211.360,4.804 212.663,4.353 214.338 M2.140 224.015 C 1.768 226.078,1.543 227.845,1.639 227.941 C 1.735 228.037,2.113 226.423,2.480 224.355 C 2.846 222.286,3.072 220.520,2.981 220.429 C 2.890 220.338,2.511 221.952,2.140 224.015 M148.438 222.656 C 147.664 222.904,147.624 222.969,148.242 222.969 C 148.672 222.969,149.463 222.828,150.000 222.656 C 150.773 222.409,150.814 222.344,150.195 222.344 C 149.766 222.344,148.975 222.484,148.438 222.656 M106.836 223.251 C 107.910 223.527,109.229 223.752,109.766 223.751 C 110.303 223.749,109.688 223.510,108.398 223.219 C 105.445 222.553,104.217 222.578,106.836 223.251 M144.141 223.438 C 142.823 223.715,142.816 223.725,143.945 223.730 C 144.590 223.733,145.645 223.602,146.289 223.438 C 147.910 223.025,146.100 223.025,144.141 223.438 M111.426 224.097 C 111.802 224.196,112.417 224.196,112.793 224.097 C 113.169 223.999,112.861 223.919,112.109 223.919 C 111.357 223.919,111.050 223.999,111.426 224.097 M140.532 224.104 C 141.018 224.198,141.721 224.194,142.094 224.097 C 142.468 223.999,142.070 223.922,141.211 223.927 C 140.352 223.931,140.046 224.011,140.532 224.104 M114.360 224.495 C 114.846 224.588,115.549 224.585,115.923 224.487 C 116.296 224.389,115.898 224.313,115.039 224.317 C 114.180 224.322,113.874 224.402,114.360 224.495 M136.822 224.499 C 137.416 224.589,138.294 224.586,138.775 224.494 C 139.255 224.401,138.770 224.328,137.695 224.330 C 136.621 224.333,136.228 224.409,136.822 224.499 M118.848 224.896 C 119.868 224.977,121.538 224.977,122.559 224.896 C 123.579 224.816,122.744 224.750,120.703 224.750 C 118.662 224.750,117.827 224.816,118.848 224.896 M128.433 224.899 C 129.784 224.975,131.894 224.975,133.121 224.898 C 134.348 224.820,133.242 224.758,130.664 224.759 C 128.086 224.759,127.082 224.822,128.433 224.899 M1.270 229.883 C 1.275 230.742,1.355 231.048,1.448 230.562 C 1.542 230.076,1.538 229.373,1.440 228.999 C 1.342 228.626,1.266 229.023,1.270 229.883 M0.880 233.008 C 0.884 233.867,0.964 234.173,1.058 233.687 C 1.151 233.201,1.147 232.498,1.050 232.124 C 0.952 231.751,0.875 232.148,0.880 233.008 M0.502 236.523 C 0.505 237.598,0.581 237.991,0.671 237.397 C 0.761 236.803,0.758 235.924,0.666 235.444 C 0.573 234.963,0.499 235.449,0.502 236.523 M0.145 242.969 C 0.145 245.225,0.209 246.147,0.288 245.020 C 0.367 243.892,0.367 242.046,0.288 240.918 C 0.209 239.790,0.145 240.713,0.145 242.969 M0.141 257.813 C 0.141 259.854,0.207 260.688,0.287 259.668 C 0.368 258.647,0.368 256.978,0.287 255.957 C 0.207 254.937,0.141 255.771,0.141 257.813 M334.829 261.719 C 334.813 262.041,335.038 263.359,335.329 264.648 C 335.619 265.938,335.859 266.553,335.860 266.016 C 335.863 264.920,334.875 260.802,334.829 261.719 M0.508 264.063 C 0.508 265.244,0.581 265.728,0.670 265.137 C 0.760 264.546,0.760 263.579,0.670 262.988 C 0.581 262.397,0.508 262.881,0.508 264.063 M0.888 268.359 C 0.888 269.326,0.964 269.722,1.057 269.238 C 1.150 268.755,1.150 267.964,1.057 267.480 C 0.964 266.997,0.888 267.393,0.888 268.359 M336.011 267.969 C 336.003 268.506,336.136 269.736,336.308 270.703 C 336.543 272.021,336.628 272.168,336.647 271.289 C 336.662 270.645,336.528 269.414,336.351 268.555 C 336.148 267.577,336.021 267.357,336.011 267.969 M1.263 271.484 C 1.263 272.236,1.343 272.544,1.441 272.168 C 1.539 271.792,1.539 271.177,1.441 270.801 C 1.343 270.425,1.263 270.732,1.263 271.484 M336.830 274.414 C 336.833 275.488,336.909 275.881,336.999 275.288 C 337.089 274.694,337.086 273.815,336.994 273.334 C 336.901 272.854,336.828 273.340,336.830 274.414 M1.653 274.219 C 1.653 274.971,1.734 275.278,1.832 274.902 C 1.930 274.526,1.930 273.911,1.832 273.535 C 1.734 273.159,1.653 273.467,1.653 274.219 M2.044 276.758 C 2.045 277.402,2.180 278.457,2.344 279.102 C 2.757 280.726,2.775 279.127,2.366 277.148 C 2.094 275.835,2.043 275.773,2.044 276.758 M337.252 280.664 C 337.253 282.813,337.319 283.642,337.398 282.506 C 337.477 281.371,337.476 279.613,337.396 278.600 C 337.316 277.587,337.251 278.516,337.252 280.664 M3.558 284.766 C 3.543 285.088,3.775 286.230,4.074 287.305 C 4.373 288.379,4.630 288.994,4.645 288.672 C 4.660 288.350,4.428 287.207,4.129 286.133 C 3.830 285.059,3.573 284.443,3.558 284.766 M337.234 292.969 C 337.234 294.365,337.305 294.937,337.392 294.238 C 337.479 293.540,337.479 292.397,337.392 291.699 C 337.305 291.001,337.234 291.572,337.234 292.969 M5.322 292.188 C 5.459 292.939,5.724 293.906,5.912 294.336 C 6.147 294.872,6.176 294.689,6.006 293.750 C 5.870 292.998,5.604 292.031,5.416 291.602 C 5.181 291.065,5.152 291.249,5.322 292.188 M6.271 295.569 C 6.259 295.817,7.219 298.842,8.404 302.291 C 23.431 346.031,56.324 377.508,101.715 391.584 C 104.915 392.576,107.697 393.333,107.898 393.266 C 108.100 393.199,106.273 392.561,103.839 391.849 C 57.839 378.391,24.427 346.870,8.756 302.148 C 7.401 298.281,6.283 295.320,6.271 295.569 M336.408 299.250 C 336.139 301.228,335.991 302.918,336.080 303.007 C 336.315 303.242,337.245 296.697,337.057 296.133 C 336.970 295.870,336.678 297.273,336.408 299.250 M335.373 304.905 C 335.226 305.688,335.184 306.408,335.279 306.503 C 335.375 306.599,335.573 306.036,335.720 305.252 C 335.868 304.468,335.910 303.748,335.814 303.653 C 335.719 303.557,335.520 304.121,335.373 304.905 M332.908 313.738 C 321.746 347.654,286.067 381.815,247.656 395.363 C 244.756 396.386,242.568 397.232,242.794 397.244 C 244.355 397.326,255.724 392.849,262.223 389.595 C 292.473 374.445,318.001 349.227,329.816 322.821 C 331.713 318.582,334.903 309.561,334.696 309.020 C 334.627 308.838,333.822 310.961,332.908 313.738 M109.180 393.750 C 109.609 393.935,110.312 394.081,110.742 394.074 C 111.370 394.065,111.332 394.001,110.547 393.750 C 109.211 393.322,108.184 393.322,109.180 393.750 M114.876 395.075 C 115.126 395.311,123.070 396.880,123.785 396.835 C 124.131 396.814,122.480 396.383,120.117 395.877 C 115.902 394.976,114.552 394.769,114.876 395.075 M128.320 397.679 C 129.180 397.856,130.322 397.992,130.859 397.979 C 131.486 397.965,131.276 397.841,130.273 397.634 C 129.414 397.456,128.271 397.321,127.734 397.333 C 127.108 397.347,127.318 397.471,128.320 397.679 M238.672 398.077 C 237.275 398.482,236.761 398.727,237.528 398.621 C 239.147 398.397,242.665 397.343,241.797 397.342 C 241.475 397.342,240.068 397.673,238.672 398.077 M132.719 398.323 C 133.205 398.417,133.908 398.413,134.282 398.315 C 134.655 398.217,134.258 398.141,133.398 398.145 C 132.539 398.150,132.233 398.230,132.719 398.323 M135.840 398.713 C 136.323 398.806,137.114 398.806,137.598 398.713 C 138.081 398.620,137.686 398.544,136.719 398.544 C 135.752 398.544,135.356 398.620,135.840 398.713 M139.947 399.108 C 140.541 399.198,141.419 399.196,141.900 399.103 C 142.380 399.010,141.895 398.937,140.820 398.940 C 139.746 398.943,139.353 399.019,139.947 399.108 M232.813 399.219 C 231.494 399.496,231.487 399.507,232.617 399.512 C 233.262 399.515,234.316 399.383,234.961 399.219 C 236.582 398.806,234.772 398.806,232.813 399.219 M144.441 399.502 C 145.143 399.589,146.197 399.587,146.784 399.498 C 147.371 399.409,146.797 399.338,145.508 399.340 C 144.219 399.342,143.738 399.415,144.441 399.502 M150.893 399.898 C 152.136 399.976,154.070 399.976,155.190 399.897 C 156.310 399.818,155.293 399.755,152.930 399.755 C 150.566 399.756,149.650 399.821,150.893 399.898 M228.223 399.889 C 228.813 399.979,229.780 399.979,230.371 399.889 C 230.962 399.800,230.479 399.726,229.297 399.726 C 228.115 399.726,227.632 399.800,228.223 399.889 " stroke="none" fill="#ff8930" fill-rule="evenodd"></path></g></svg>