<svg id="svg" version="1.1" xmlns="http://www.w3.org/2000/svg" xmlns:xlink="http://www.w3.org/1999/xlink" width="40" height="40" viewBox="0, 0, 400,400"><g id="svgg"><path id="path0" d="M334.149 92.072 C 325.934 103.073,318.406 109.189,303.489 116.983 C 293.451 122.227,291.169 124.037,289.216 128.302 C 284.068 139.547,289.667 148.954,308.093 160.021 C 312.895 162.905,314.006 163.061,320.367 161.742 C 349.764 155.648,399.977 124.210,399.996 111.886 C 400.009 103.754,394.121 100.062,381.055 100.008 C 361.389 99.926,350.275 96.816,338.424 88.079 C 337.612 87.481,337.493 87.592,334.149 92.072 " stroke="none" fill="#fc8c33" fill-rule="evenodd"></path><path id="path1" d="M223.047 0.620 C 173.503 6.537,138.744 46.216,137.606 98.153 C 136.997 125.970,141.909 140.816,159.320 163.781 C 168.561 175.969,171.300 180.758,173.293 188.206 C 178.289 206.881,170.480 217.776,148.633 222.611 C 104.305 232.422,62.508 211.336,40.522 168.071 C 37.248 161.628,37.736 161.899,34.364 164.657 C 12.468 182.572,0.203 213.358,0.210 250.391 C 0.225 332.561,53.228 389.400,138.867 399.084 C 147.833 400.097,227.978 400.364,233.789 399.399 C 272.783 392.925,318.394 354.594,332.349 316.569 C 336.375 305.600,337.305 299.843,337.301 285.938 C 337.292 258.018,331.632 243.063,313.849 223.981 C 301.463 210.690,300.571 208.928,300.616 197.852 C 300.670 184.645,305.090 171.073,311.650 163.969 C 312.194 163.380,312.555 162.816,312.453 162.714 C 312.352 162.612,310.400 161.407,308.117 160.035 C 289.665 148.953,284.066 139.552,289.216 128.302 C 291.169 124.037,293.451 122.227,303.489 116.983 C 318.382 109.202,325.937 103.069,334.104 92.131 C 337.993 86.922,337.903 87.372,336.345 80.991 C 322.671 24.995,278.906 -6.051,223.047 0.620 M305.746 63.908 C 314.723 68.498,314.635 81.761,305.599 86.182 C 297.596 90.097,288.307 84.830,287.597 75.972 C 286.815 66.238,297.028 59.449,305.746 63.908 " stroke="none" fill="#fccb63" fill-rule="evenodd"></path><path id="path2" d="M296.211 63.203 C 282.837 67.982,285.870 87.267,300.000 87.294 C 313.214 87.319,317.178 69.267,305.166 63.768 C 302.313 62.462,298.891 62.246,296.211 63.203 " stroke="none" fill="#656464" fill-rule="evenodd"></path></g></svg>